<?xml version="1.0" encoding="UTF-8"?>
<!DOCTYPE svg PUBLIC "-//W3C//DTD SVG 1.1//EN" "http://www.w3.org/Graphics/SVG/1.1/DTD/svg11.dtd">
<svg xmlns="http://www.w3.org/2000/svg" version="1.1" width="512px" height="512px" style="shape-rendering:geometricPrecision; text-rendering:geometricPrecision; image-rendering:optimizeQuality; fill-rule:evenodd; clip-rule:evenodd" xmlns:xlink="http://www.w3.org/1999/xlink">
<g><path style="opacity:0.999" fill="#252238" d="M -0.5,-0.5 C 169.5,-0.5 339.5,-0.5 509.5,-0.5C 509.5,170.167 509.5,340.833 509.5,511.5C 339.5,511.5 169.5,511.5 -0.5,511.5C -0.5,340.833 -0.5,170.167 -0.5,-0.5 Z"/></g>
<g><path style="opacity:0.623" fill="#444448" d="M 509.5,-0.5 C 510.167,-0.5 510.833,-0.5 511.5,-0.5C 511.5,170.167 511.5,340.833 511.5,511.5C 510.833,511.5 510.167,511.5 509.5,511.5C 509.5,340.833 509.5,170.167 509.5,-0.5 Z"/></g>
<g><path style="opacity:1" fill="#9d4450" d="M 281.5,95.5 C 306.429,96.8533 329.763,103.687 351.5,116C 389.23,140.844 406.063,176.011 402,221.5C 397.254,260.675 377.42,289.342 342.5,307.5C 363.843,338.862 385.177,370.195 406.5,401.5C 401.5,402.167 396.5,402.833 391.5,403.5C 366.167,403.5 340.833,403.5 315.5,403.5C 297.189,376.899 278.856,350.233 260.5,323.5C 244.514,322.501 228.514,322.167 212.5,322.5C 211.502,349.328 211.169,376.328 211.5,403.5C 182.833,403.5 154.167,403.5 125.5,403.5C 125.5,374.5 125.5,345.5 125.5,316.5C 125.5,242.833 125.5,169.167 125.5,95.5C 177.5,95.5 229.5,95.5 281.5,95.5 Z"/></g>
<g><path style="opacity:1" fill="#502d40" d="M 281.5,95.5 C 229.5,95.5 177.5,95.5 125.5,95.5C 125.5,169.167 125.5,242.833 125.5,316.5C 124.501,242.669 124.167,168.669 124.5,94.5C 177.003,94.1677 229.336,94.5011 281.5,95.5 Z"/></g>
<g><path style="opacity:1" fill="#603243" d="M 212.5,164.5 C 212.5,194.167 212.5,223.833 212.5,253.5C 227.5,253.5 242.5,253.5 257.5,253.5C 242.342,254.496 227.009,254.83 211.5,254.5C 211.169,224.329 211.502,194.329 212.5,164.5 Z"/></g>
<g><path style="opacity:1" fill="#252238" d="M 212.5,164.5 C 235.544,164.053 258.544,164.553 281.5,166C 308.214,175.045 318.714,193.545 313,221.5C 308.86,237.64 298.693,247.807 282.5,252C 274.236,253.37 265.903,253.87 257.5,253.5C 242.5,253.5 227.5,253.5 212.5,253.5C 212.5,223.833 212.5,194.167 212.5,164.5 Z"/></g>
<g><path style="opacity:1" fill="#7f3b49" d="M 406.5,401.5 C 407.167,401.5 407.5,401.833 407.5,402.5C 402.36,403.488 397.026,403.821 391.5,403.5C 396.5,402.833 401.5,402.167 406.5,401.5 Z"/></g>
<g><path style="opacity:1" fill="#5e3143" d="M 212.5,322.5 C 212.5,349.833 212.5,377.167 212.5,404.5C 183.329,404.831 154.329,404.498 125.5,403.5C 154.167,403.5 182.833,403.5 211.5,403.5C 211.169,376.328 211.502,349.328 212.5,322.5 Z"/></g>
<g><path style="opacity:1" fill="#4d2d3f" d="M 407.5,402.5 C 408.043,402.56 408.376,402.893 408.5,403.5C 377.336,404.83 346.336,404.83 315.5,403.5C 340.833,403.5 366.167,403.5 391.5,403.5C 397.026,403.821 402.36,403.488 407.5,402.5 Z"/></g>
</svg>
